<svg width="90" height="90" fill="none" xmlns="http://www.w3.org/2000/svg"><g filter="url(#filter0_d)"><rect x="20" y="10" width="50" height="50" rx="15" fill="#D8F0FA"/></g><path fill-rule="evenodd" clip-rule="evenodd" d="M50.155 28.549h.239c3.14 0 5.69 2.625 5.69 5.845v6.44c0 3.22-2.55 5.833-5.69 5.833H39.606c-3.14 0-5.69-2.614-5.69-5.834v-6.44c0-3.22 2.55-5.845 5.69-5.845h.24c.022-1.4.557-2.706 1.524-3.686.979-.992 2.23-1.493 3.642-1.528 2.822 0 5.109 2.333 5.143 5.215zm-7.59-2.439a3.591 3.591 0 00-1.013 2.439h6.896c-.034-1.914-1.559-3.465-3.437-3.465-.876 0-1.786.361-2.446 1.026zm6.76 6.93a.863.863 0 00.853-.875v-1.353a.863.863 0 00-.854-.875.87.87 0 00-.853.875v1.353a.87.87 0 00.853.875zm-7.898-.875a.863.863 0 01-.853.875.87.87 0 01-.854-.875v-1.353a.87.87 0 01.854-.875c.477 0 .853.396.853.875v1.353z" fill="#0985B9"/><defs><filter id="filter0_d" x="0" y="0" width="90" height="90" filterUnits="userSpaceOnUse" color-interpolation-filters="sRGB"><feFlood flood-opacity="0" result="BackgroundImageFix"/><feColorMatrix in="SourceAlpha" values="0 0 0 0 0 0 0 0 0 0 0 0 0 0 0 0 0 0 127 0"/><feOffset dy="10"/><feGaussianBlur stdDeviation="10"/><feColorMatrix values="0 0 0 0 0.745833 0 0 0 0 0.649564 0 0 0 0 0.450608 0 0 0 0.05 0"/><feBlend in2="BackgroundImageFix" result="effect1_dropShadow"/><feBlend in="SourceGraphic" in2="effect1_dropShadow" result="shape"/></filter></defs></svg>