<svg width="259" height="61" fill="none" xmlns="http://www.w3.org/2000/svg"><g clip-path="url(#clip0)" fill="#fff"><path d="M39.178 20.273c-3.476-2.006-4.721-6.522-2.69-10.04 2.006-3.475 6.522-4.72 10.039-2.69 3.475 2.007 4.72 6.523 2.69 10.04a7.346 7.346 0 01-10.04 2.69zM94.267 32.61c5.827-10.092 2.322-23.17-7.77-28.997-10.133-5.85-23.169-2.322-28.995 7.77L41.98 38.266s39.135 17.123 52.287-5.657zM7.398 30.112C3.336 37.147 5.737 46.238 12.772 50.3c7.034 4.061 16.083 1.637 20.145-5.398l10.807-18.718c.042.024-27.188-11.9-36.326 3.928zM18.21 40.878a3.88 3.88 0 01-1.416-5.284 3.88 3.88 0 015.284-1.416 3.88 3.88 0 011.416 5.284c-1.022 1.867-3.4 2.504-5.284 1.416zm95.563-4.163c-1.469-.826-2.662-1.928-3.488-3.396-.826-1.469-1.285-3.03-1.285-4.865 0-1.836.459-3.396 1.285-4.865.826-1.468 2.019-2.57 3.488-3.396 1.468-.826 3.121-1.193 5.048-1.193 1.469 0 2.845.275 4.13.826 1.286.55 2.295 1.285 3.121 2.295l-2.203 2.11c-1.285-1.468-2.937-2.11-4.864-2.11-1.285 0-2.387.275-3.396.826a5.53 5.53 0 00-2.295 2.294 6.785 6.785 0 00-.826 3.305c0 1.193.275 2.386.826 3.304.551 1.01 1.377 1.744 2.295 2.295 1.009.55 2.111.826 3.396.826 1.927 0 3.579-.734 4.864-2.203l2.203 2.111c-.826 1.01-1.927 1.744-3.121 2.295a10.37 10.37 0 01-4.13.826c-1.836 0-3.58-.46-5.048-1.285zm18.724 0c-1.468-.826-2.662-1.928-3.58-3.396-.826-1.469-1.285-3.03-1.285-4.865 0-1.744.459-3.396 1.285-4.865.827-1.468 2.02-2.57 3.58-3.396 1.469-.826 3.213-1.193 5.048-1.193 1.836 0 3.58.367 5.049 1.193 1.468.826 2.661 1.928 3.579 3.396.826 1.469 1.285 3.03 1.285 4.865 0 1.836-.459 3.396-1.285 4.865-.826 1.468-2.019 2.57-3.579 3.396-1.469.826-3.213 1.193-5.049 1.193a9.158 9.158 0 01-5.048-1.193zm8.353-2.57a5.528 5.528 0 002.294-2.295 6.786 6.786 0 00.826-3.304 6.785 6.785 0 00-.826-3.305 5.528 5.528 0 00-2.294-2.294 6.79 6.79 0 00-3.305-.826 6.79 6.79 0 00-3.304.826 5.53 5.53 0 00-2.295 2.294 6.796 6.796 0 00-.826 3.305c0 1.193.276 2.294.826 3.304a5.53 5.53 0 002.295 2.295 6.79 6.79 0 003.304.826 6.79 6.79 0 003.305-.826zm26.984 3.58V25.61l-6.057 10.096h-1.561l-6.058-9.913v12.024h-3.212V19.46h2.845l7.251 12.116 7.16-12.116h2.845v18.357h-3.213v-.092zm19.918-17.531c1.193.551 2.111 1.285 2.754 2.295.642 1.01.917 2.111.917 3.488 0 1.285-.275 2.478-.917 3.488-.643 1.01-1.561 1.744-2.754 2.294-1.193.551-2.57.826-4.13.826h-4.131v5.324h-3.396V19.552h7.527a7.578 7.578 0 014.13.642zm-1.01 8.445a3.463 3.463 0 001.194-2.662c0-1.193-.368-2.111-1.194-2.662-.734-.643-1.927-.918-3.396-.918H179.4v7.251h3.946c1.561-.092 2.662-.459 3.396-1.01zm19.001 4.865h-9.179l-1.835 4.222h-3.488l8.26-18.357h3.397l8.26 18.357h-3.579l-1.836-4.222zm-1.101-2.662l-3.488-7.985-3.396 7.985h6.884zM229.79 19.37v18.356h-2.846l-10.096-12.39v12.39h-3.396V19.37h2.845l10.097 12.391V19.37h3.396zm12.851 11.839v6.425h-3.396v-6.425l-7.16-11.933h3.672l5.323 8.904 5.416-8.904h3.396l-7.251 11.933z"/></g><defs><clipPath id="clip0"><path fill="#fff" d="M0 0h259v61H0z"/></clipPath></defs></svg>