<svg width="90" height="90" fill="none" xmlns="http://www.w3.org/2000/svg"><g filter="url(#filter0_d)"><rect x="20" y="10.001" width="50" height="50" rx="15" fill="#E7F2EF"/></g><path fill-rule="evenodd" clip-rule="evenodd" d="M54.799 31.67l.84.84a3.448 3.448 0 011.027 2.474 3.47 3.47 0 01-1.038 2.52l-.829.828c-.327.327-.514.77-.514 1.238v1.2a3.517 3.517 0 01-3.512 3.513H49.57c-.466 0-.91.186-1.237.512l-.84.84a3.494 3.494 0 01-2.486 1.027 3.535 3.535 0 01-2.486-1.014l-.852-.853a1.748 1.748 0 00-1.237-.512H39.23a3.517 3.517 0 01-3.513-3.513v-1.2c0-.468-.187-.911-.514-1.25l-.84-.828a3.525 3.525 0 01-.011-4.969l.852-.853c.326-.326.513-.77.513-1.248v-1.19a3.515 3.515 0 013.513-3.51h1.202c.467 0 .91-.188 1.237-.515l.84-.84a3.52 3.52 0 014.972-.01l.852.85c.327.327.77.514 1.237.514h1.203a3.515 3.515 0 013.512 3.51v1.204c0 .465.187.909.514 1.235zm-12.803 7.35a.98.98 0 00.724-.303l5.998-5.996a1.03 1.03 0 000-1.447 1.017 1.017 0 00-1.435 0l-5.999 5.996a1.028 1.028 0 000 1.447.97.97 0 00.712.303zm4.983-1.026a1.02 1.02 0 102.042.011 1.02 1.02 0 00-2.041-.011zm-4.971-7.012c.56 0 1.015.455 1.015 1.015 0 .573-.455 1.027-1.015 1.027-.56 0-1.027-.454-1.027-1.027 0-.56.466-1.015 1.027-1.015z" fill="#51A690"/><defs><filter id="filter0_d" x="0" y=".001" width="90" height="90" filterUnits="userSpaceOnUse" color-interpolation-filters="sRGB"><feFlood flood-opacity="0" result="BackgroundImageFix"/><feColorMatrix in="SourceAlpha" values="0 0 0 0 0 0 0 0 0 0 0 0 0 0 0 0 0 0 127 0"/><feOffset dy="10"/><feGaussianBlur stdDeviation="10"/><feColorMatrix values="0 0 0 0 0.0235294 0 0 0 0 0.301961 0 0 0 0 0.227451 0 0 0 0.03 0"/><feBlend in2="BackgroundImageFix" result="effect1_dropShadow"/><feBlend in="SourceGraphic" in2="effect1_dropShadow" result="shape"/></filter></defs></svg>