<svg width="90" height="90" fill="none" xmlns="http://www.w3.org/2000/svg"><g filter="url(#filter0_d)"><rect x="20" y="10" width="50" height="50" rx="15" fill="#C0F2EF"/></g><path fill-rule="evenodd" clip-rule="evenodd" d="M33.333 33.448c0-5.586 4.48-10.114 10.008-10.114 2.654 0 5.2 1.065 7.076 2.962a10.17 10.17 0 012.93 7.152c0 5.587-4.48 10.115-10.006 10.115-5.527 0-10.008-4.528-10.008-10.115zm19.85 8.149l2.98 2.406h.052c.602.61.602 1.597 0 2.207-.604.61-1.581.61-2.184 0l-2.474-2.835a1.262 1.262 0 010-1.778 1.15 1.15 0 011.625 0z" fill="#00A198"/><defs><filter id="filter0_d" x="0" y="0" width="90" height="90" filterUnits="userSpaceOnUse" color-interpolation-filters="sRGB"><feFlood flood-opacity="0" result="BackgroundImageFix"/><feColorMatrix in="SourceAlpha" values="0 0 0 0 0 0 0 0 0 0 0 0 0 0 0 0 0 0 127 0"/><feOffset dy="10"/><feGaussianBlur stdDeviation="10"/><feColorMatrix values="0 0 0 0 0.770833 0 0 0 0 0.619075 0 0 0 0 0.56849 0 0 0 0.1 0"/><feBlend in2="BackgroundImageFix" result="effect1_dropShadow"/><feBlend in="SourceGraphic" in2="effect1_dropShadow" result="shape"/></filter></defs></svg>