<svg width="90" height="90" fill="none" xmlns="http://www.w3.org/2000/svg"><g filter="url(#filter0_d)"><rect x="20" y="10" width="50" height="50" rx="15" fill="#FAF3D8"/></g><path fill-rule="evenodd" clip-rule="evenodd" d="M49.852 30.605a4.908 4.908 0 01-4.911 4.94 4.908 4.908 0 01-4.911-4.94 4.907 4.907 0 014.91-4.939 4.907 4.907 0 014.912 4.939zM44.94 44.333c-4.004 0-7.422-.634-7.422-3.173 0-2.54 3.397-3.197 7.422-3.197 4.003 0 7.42.634 7.42 3.174 0 2.538-3.395 3.196-7.42 3.196zm7.01-13.639c0 1.397-.418 2.7-1.149 3.781a.185.185 0 00.124.285c.183.032.372.05.564.055 1.917.05 3.638-1.19 4.113-3.059.704-2.775-1.363-5.266-3.996-5.266-.286 0-.56.03-.826.085-.036.009-.075.025-.096.058-.025.04-.006.094.019.128a6.774 6.774 0 011.246 3.933zm3.174 6.07c1.288.254 2.135.77 2.486 1.522a2.243 2.243 0 010 1.948c-.537 1.165-2.268 1.54-2.94 1.636-.14.02-.251-.1-.237-.24.344-3.229-2.39-4.76-3.097-5.111-.03-.016-.037-.04-.034-.055a.046.046 0 01.038-.03c1.53-.029 3.176.181 3.784.33zm-16.615-1.95c.192-.005.38-.021.564-.054a.185.185 0 00.125-.285 6.725 6.725 0 01-1.149-3.781c0-1.459.456-2.818 1.247-3.933.025-.035.043-.088.019-.128-.021-.032-.061-.05-.097-.058a4.111 4.111 0 00-.827-.085c-2.633 0-4.7 2.491-3.995 5.266.476 1.868 2.196 3.11 4.113 3.059zm.187 1.65c.003.015-.004.038-.033.055-.708.352-3.442 1.883-3.098 5.11.014.142-.096.261-.235.241-.673-.096-2.404-.47-2.941-1.636a2.236 2.236 0 010-1.948c.351-.75 1.197-1.268 2.485-1.522.61-.148 2.254-.358 3.785-.33.023.003.034.02.037.03z" fill="#FFCF00"/><defs><filter id="filter0_d" x="0" y="0" width="90" height="90" filterUnits="userSpaceOnUse" color-interpolation-filters="sRGB"><feFlood flood-opacity="0" result="BackgroundImageFix"/><feColorMatrix in="SourceAlpha" values="0 0 0 0 0 0 0 0 0 0 0 0 0 0 0 0 0 0 127 0"/><feOffset dy="10"/><feGaussianBlur stdDeviation="10"/><feColorMatrix values="0 0 0 0 0.745833 0 0 0 0 0.649564 0 0 0 0 0.450608 0 0 0 0.05 0"/><feBlend in2="BackgroundImageFix" result="effect1_dropShadow"/><feBlend in="SourceGraphic" in2="effect1_dropShadow" result="shape"/></filter></defs></svg>