<svg width="28" height="28" fill="none" xmlns="http://www.w3.org/2000/svg"><path fill-rule="evenodd" clip-rule="evenodd" d="M8.552 2.334h10.896c3.968 0 6.207 2.25 6.22 6.218V19.45c0 3.967-2.252 6.218-6.22 6.218H8.552c-3.968 0-6.218-2.251-6.218-6.218V8.552c0-3.968 2.25-6.218 6.218-6.218zm5.506 18.503a.964.964 0 00.968-.875V8.074a.951.951 0 00-.442-.922.98.98 0 00-1.495.922v11.888c.06.502.479.875.969.875zm5.367 0c.49 0 .91-.373.969-.875v-3.826a.978.978 0 00-1.493-.922.94.94 0 00-.444.922v3.826a.964.964 0 00.968.875zm-9.836-.875a.965.965 0 01-.968.875.963.963 0 01-.967-.875v-8.061a.981.981 0 01.455-.922.96.96 0 011.027 0c.313.198.49.559.453.922v8.061z" fill="#FEAD86"/></svg>